<mxfile host="app.diagrams.net" modified="2023-08-23T02:02:05.690Z" agent="Mozilla/5.0 (Windows NT 10.0; Win64; x64; rv:109.0) Gecko/20100101 Firefox/116.0" version="21.6.7" etag="quxELa6wJi2q2F8dYUDI" type="github">
  <diagram name="PÃ¡gina-1" id="q52G8ShJ57xq6kSSzY16">
    <mxGraphModel>
      <root>
        <mxCell id="0" />
        <mxCell id="1" parent="0" />
      </root>
    </mxGraphModel>
  </diagram>
</mxfile>
